<svg width="29" height="29" viewBox="0 0 29 29" fill="none" xmlns="http://www.w3.org/2000/svg">
<path fill-rule="evenodd" clip-rule="evenodd" d="M14.38 29C6.56999 29 0.23999 22.508 0.23999 14.5C0.23999 6.492 6.57099 0 14.38 0C22.189 0 28.518 6.492 28.518 14.5C28.518 22.508 22.187 29 14.38 29ZM17.934 7.065C17.2756 6.99119 16.6135 6.95612 15.951 6.96C13.986 6.96 12.638 8.17 12.638 10.387V12.297H10.421V14.891H12.638V21.543H15.3V14.89H17.509L17.848 12.296H15.3V10.64C15.3 9.895 15.5 9.378 16.57 9.378H17.935V7.065H17.934Z" fill="#6D6D6D"/>
</svg>
