<svg width="29" height="29" viewBox="0 0 29 29" fill="none" xmlns="http://www.w3.org/2000/svg">
<path fill-rule="evenodd" clip-rule="evenodd" d="M14.8616 29C7.05363 29 0.723633 22.508 0.723633 14.5C0.723633 6.492 7.05363 0 14.8616 0C22.6696 0 28.9996 6.492 28.9996 14.5C28.9996 22.508 22.6696 29 14.8616 29ZM17.3666 14.997C17.3666 16.549 16.1326 17.814 14.6196 17.814C13.1066 17.814 11.8726 16.549 11.8726 14.997C11.8726 13.446 13.1066 12.18 14.6196 12.18C16.1326 12.18 17.3666 13.446 17.3666 14.997ZM18.8466 14.997C18.8466 12.598 16.9586 10.661 14.6196 10.661C12.2796 10.661 10.3916 12.598 10.3916 14.997C10.3916 17.397 12.2806 19.333 14.6196 19.333C16.9586 19.333 18.8466 17.396 18.8466 14.997V14.997ZM20.0056 10.485C20.0076 10.3537 19.9836 10.2232 19.935 10.1012C19.8864 9.97912 19.8142 9.86788 19.7225 9.77384C19.6308 9.6798 19.5214 9.60481 19.4006 9.55318C19.2798 9.50155 19.15 9.4743 19.0186 9.473C18.8873 9.4743 18.7575 9.50155 18.6367 9.55318C18.5159 9.60481 18.4065 9.6798 18.3148 9.77384C18.2231 9.86788 18.1508 9.97912 18.1022 10.1012C18.0536 10.2232 18.0296 10.3537 18.0316 10.485C18.0316 11.047 18.4716 11.498 19.0186 11.498C19.1501 11.4967 19.28 11.4694 19.4008 11.4177C19.5217 11.366 19.6311 11.291 19.7229 11.1968C19.8146 11.1027 19.8868 10.9913 19.9353 10.8691C19.9839 10.747 20.0078 10.6164 20.0056 10.485V10.485ZM14.6196 8.065C15.8206 8.065 18.3966 7.965 19.4796 8.405C19.8556 8.56 20.1346 8.747 20.4236 9.044C20.7136 9.341 20.8966 9.627 21.0466 10.012C21.4756 11.124 21.3786 13.765 21.3786 14.997C21.3786 16.23 21.4756 18.871 21.0466 19.982C20.8966 20.367 20.7136 20.653 20.4236 20.951C20.1594 21.2301 19.8371 21.4479 19.4796 21.589C18.3966 22.029 15.8206 21.93 14.6196 21.93C13.4176 21.93 10.8426 22.029 9.75963 21.589C9.40177 21.448 9.07919 21.2302 8.81463 20.951C8.54026 20.6763 8.32813 20.3458 8.19263 19.982C7.76263 18.871 7.85963 16.23 7.85963 14.997C7.85963 13.765 7.76263 11.124 8.19263 10.012C8.34263 9.627 8.52463 9.341 8.81463 9.044C9.0788 8.76455 9.40103 8.54642 9.75863 8.405C10.8426 7.965 13.4176 8.065 14.6186 8.065H14.6196ZM22.8596 14.997C22.8596 13.831 22.8696 12.675 22.8056 11.509C22.7416 10.155 22.4416 8.956 21.4756 7.965C20.5096 6.975 19.3406 6.667 18.0206 6.601C16.8836 6.535 15.7566 6.546 14.6196 6.546C13.4816 6.546 12.3556 6.535 11.2176 6.601C9.89763 6.667 8.72863 6.975 7.76263 7.965C6.79763 8.955 6.49663 10.155 6.43263 11.509C6.36863 12.675 6.37863 13.831 6.37863 14.997C6.37863 16.164 6.36863 17.319 6.43263 18.486C6.49663 19.839 6.79763 21.039 7.76263 22.029C8.72863 23.019 9.89863 23.328 11.2176 23.394C12.3556 23.46 13.4816 23.449 14.6196 23.449C15.7566 23.449 16.8836 23.459 18.0206 23.394C19.3406 23.328 20.5106 23.019 21.4756 22.029C22.4416 21.039 22.7416 19.839 22.8056 18.486C22.8706 17.319 22.8596 16.164 22.8596 14.997V14.997Z" fill="#6D6D6D"/>
</svg>
