<svg width="29" height="29" viewBox="0 0 29 29" fill="none" xmlns="http://www.w3.org/2000/svg">
<path fill-rule="evenodd" clip-rule="evenodd" d="M14.6204 29C6.81437 29 0.484375 22.508 0.484375 14.5C0.484375 6.492 6.81337 0 14.6204 0C22.4274 0 28.7584 6.492 28.7584 14.5C28.7584 22.508 22.4294 29 14.6204 29ZM16.5564 17.667C16.5564 17.182 16.4174 16.929 16.1384 16.929C15.9784 16.929 15.8164 17.006 15.6554 17.171V20.484C15.8164 20.649 15.9774 20.726 16.1384 20.726C16.4174 20.726 16.5564 20.484 16.5564 19.989V17.667ZM20.1834 17.677C20.1834 17.182 20.0234 16.929 19.7004 16.929C19.3784 16.929 19.2174 17.182 19.2174 17.678V18.184H20.1834V17.678V17.677ZM9.81837 15.28V21.541H8.74537V15.28H7.62037V14.245H10.9674V15.28H9.81837ZM12.9084 21.541V20.947C12.5224 21.398 12.1584 21.618 11.8144 21.618C11.5034 21.618 11.2774 21.486 11.1924 21.211C11.1384 21.046 11.1064 20.793 11.1064 20.408V16.105H12.0614V20.111C12.0614 20.341 12.0614 20.463 12.0714 20.496C12.0934 20.65 12.1684 20.726 12.2974 20.726C12.4904 20.726 12.6944 20.573 12.9084 20.265V16.105H13.8634V21.541H12.9084ZM17.5114 19.913C17.5114 20.419 17.4904 20.782 17.4154 21.013C17.2974 21.409 17.0294 21.618 16.6534 21.618C16.3104 21.618 15.9774 21.42 15.6554 21.013V21.541H14.7004V14.245H15.6554V16.633C15.9664 16.237 16.2994 16.039 16.6534 16.039C17.0294 16.039 17.2974 16.249 17.4154 16.655C17.4904 16.875 17.5114 17.239 17.5114 17.745V19.913ZM21.1384 19.803C21.1384 20.122 21.1384 20.342 21.1174 20.441C21.0954 20.661 21.0094 20.859 20.8914 21.035C20.6344 21.42 20.2374 21.618 19.7324 21.618C19.2284 21.618 18.8524 21.431 18.5744 21.058C18.3704 20.793 18.2624 20.364 18.2624 19.781V17.877C18.2624 17.294 18.3594 16.875 18.5624 16.6C18.8424 16.226 19.2174 16.039 19.7114 16.039C20.1944 16.039 20.5694 16.226 20.8484 16.6C21.0414 16.875 21.1384 17.294 21.1384 17.877V19.01H19.2184V19.968C19.2184 20.474 19.3784 20.727 19.7114 20.727C19.9474 20.727 20.0874 20.595 20.1414 20.331C20.1514 20.276 20.1614 20.056 20.1614 19.66H21.1384V19.803ZM14.6144 9.754C14.6144 10.261 14.4744 10.524 14.1534 10.524C13.8424 10.524 13.6924 10.261 13.6924 9.754V7.444C13.6924 6.937 13.8424 6.684 14.1534 6.684C14.4754 6.684 14.6144 6.937 14.6144 7.444V9.754ZM22.3294 18.019C22.3294 16.742 22.3294 15.399 22.0504 14.167C21.8574 13.297 21.1604 12.66 20.3334 12.561C18.3594 12.341 16.3634 12.341 14.3784 12.341C12.3934 12.341 10.3984 12.341 8.43437 12.561C7.59737 12.66 6.91037 13.298 6.70737 14.167C6.43837 15.4 6.42737 16.742 6.42737 18.019C6.42737 19.284 6.42737 20.638 6.70737 21.87C6.90037 22.74 7.59737 23.378 8.42338 23.466C10.3984 23.697 12.3934 23.697 14.3784 23.697C16.3634 23.697 18.3594 23.697 20.3334 23.467C21.1604 23.378 21.8464 22.74 22.0504 21.87C22.3184 20.638 22.3294 19.284 22.3294 18.019ZM11.6214 3.977L10.8914 6.871L10.1294 3.977H8.99237C9.21737 4.659 9.45337 5.353 9.68937 6.035C10.0334 7.058 10.2474 7.829 10.3444 8.368V11.35H11.4174V8.368L12.7154 3.978H11.6214V3.977ZM15.5914 7.642C15.5914 7.058 15.4944 6.629 15.2914 6.354C15.0224 5.98 14.6474 5.793 14.1534 5.793C13.6704 5.793 13.2954 5.98 13.0264 6.354C12.8234 6.629 12.7264 7.058 12.7264 7.642V9.567C12.7264 10.151 12.8234 10.58 13.0264 10.866C13.2954 11.24 13.6704 11.427 14.1534 11.427C14.6474 11.427 15.0234 11.24 15.2904 10.866C15.4944 10.591 15.5904 10.151 15.5904 9.567V7.642H15.5914ZM19.1854 5.859H18.2094V10.052C17.9944 10.371 17.7904 10.525 17.5974 10.525C17.4684 10.525 17.3934 10.437 17.3724 10.283C17.3624 10.261 17.3624 10.129 17.3624 9.898V5.858H16.3854V10.195C16.3854 10.591 16.4174 10.855 16.4714 11.02C16.5674 11.295 16.7934 11.427 17.1044 11.427C17.4584 11.427 17.8234 11.207 18.2094 10.745V11.35H19.1854V5.86V5.859Z" fill="#6D6D6D"/>
</svg>
