<svg width="24" height="24" viewBox="0 0 24 24" fill="none" xmlns="http://www.w3.org/2000/svg">
<path d="M23.9876 12.2245C23.9876 11.2412 23.9059 10.5237 23.7292 9.77961H12.2393V14.2176H18.9836C18.8477 15.3205 18.1134 16.9814 16.4817 18.0975L16.4588 18.2461L20.0917 20.9963L20.3434 21.0208C22.6549 18.9346 23.9876 15.8652 23.9876 12.2245Z" fill="#1DA1F2"/>
<path d="M12.2394 23.9175C15.5436 23.9175 18.3173 22.8544 20.3434 21.0208L16.4817 18.0975C15.4483 18.8017 14.0614 19.2934 12.2394 19.2934C9.00318 19.2934 6.25647 17.2073 5.27735 14.3239L5.13383 14.3359L1.35626 17.1927L1.30686 17.3269C3.31929 21.2334 7.45298 23.9175 12.2394 23.9175Z" fill="#107C10"/>
<path d="M5.27735 14.3239C5.019 13.5799 4.8694 12.7825 4.8694 11.9588C4.8694 11.1349 5.01892 10.3377 5.26367 9.59357L5.25683 9.43509L1.43194 6.53237L1.3068 6.59054C0.477385 8.21164 0.00146484 10.0321 0.00146484 11.9588C0.00146484 13.8854 0.477445 15.7058 1.30686 17.3269L5.27735 14.3239Z" fill="#FBBC05"/>
<path d="M12.2393 4.62403C14.5373 4.62403 16.0874 5.59402 16.9712 6.40461L20.425 3.10928C18.3039 1.1826 15.5435 0 12.2393 0C7.45294 0 3.31922 2.68404 1.3068 6.59054L5.26367 9.59357C6.25638 6.71018 9.00313 4.62403 12.2393 4.62403Z" fill="#EB4335"/>
</svg>
