<svg width="27" height="20" viewBox="0 0 27 20" fill="none" xmlns="http://www.w3.org/2000/svg">
<path d="M2.00001 0.666992H25.333C26.253 0.666992 27 1.41299 27 2.33399V18.167C27 19.087 26.253 19.834 25.333 19.834H2.00001C1.08001 19.834 0.333008 19.087 0.333008 18.168V2.33399C0.333008 1.41399 1.08001 0.666992 2.00001 0.666992Z" fill="#26A6D1"/>
<path d="M4.63301 7.33299L2.00001 13.16H5.15201L5.54301 12.231H6.43701L6.82701 13.161H10.297V12.451L10.607 13.161H12.402L12.711 12.436V13.16H19.927L20.805 12.255L21.627 13.16L25.333 13.168L22.692 10.263L25.333 7.33299H21.684L20.83 8.22099L20.034 7.33299H12.184L11.509 8.83699L10.819 7.33299H7.67301V8.01799L7.32301 7.33299H4.63301ZM5.24301 8.15999H6.78001L8.52701 12.112V8.15999H10.21L11.56 10.994L12.803 8.15999H14.478V12.342H13.458L13.45 9.06499L11.964 12.342H11.052L9.55901 9.06499V12.342H7.46201L7.06401 11.404H4.91701L4.52001 12.341H3.39701L5.24301 8.16099V8.15999ZM15.41 8.15999H19.554L20.822 9.52999L22.13 8.15999H23.398L21.472 10.262L23.398 12.339H22.073L20.805 10.954L19.49 12.339H15.41V8.15999ZM5.99001 8.86799L5.28301 10.538H6.69801L5.99101 8.86799H5.99001ZM16.433 9.02599V9.78899H18.694V10.64H16.434V11.474H18.969L20.147 10.246L19.019 9.02599H16.433Z" fill="white"/>
</svg>
