<svg width="32" height="16" viewBox="0 0 32 16" fill="none" xmlns="http://www.w3.org/2000/svg">
<path fill-rule="evenodd" clip-rule="evenodd" d="M2.46059 8.32262H3.93459V0.666626H2.46125L2.46059 8.32262ZM4.39925 8.32262H4.85592V0.666626H4.39992L4.39925 8.32262ZM5.25325 8.32262H6.07125V0.666626H5.25325V8.32262ZM6.85925 8.32262H7.31659V0.666626H6.85925V8.32262ZM7.51459 8.32262H7.86659V0.666626H7.51459V8.32262ZM1.33992 8.32262H1.79725V0.666626H1.34059L1.33992 8.32262ZM0.333252 8.32262H1.15059V0.666626H0.333252V8.32262ZM10.3079 8.32262H11.7812V0.666626H10.3079V8.32262ZM12.2452 8.32262H12.7025V0.666626H12.2452V8.32262ZM13.0999 8.32262H13.9179V0.666626H13.0999V8.32262ZM14.7065 8.32262H15.1625V0.666626H14.7059L14.7065 8.32262ZM15.3612 8.32262H15.7132V0.666626H15.3612V8.32262ZM9.18659 8.32262H9.64325V0.666626H9.18659V8.32262ZM8.17992 8.32262H8.99659V0.666626H8.17992V8.32262ZM16.2919 8.32262H17.1085V0.666626H16.2919V8.32262ZM17.8979 8.32262H18.3532V0.666626H17.8979V8.32262ZM18.5532 8.32262H18.9052V0.666626H18.5525L18.5532 8.32262ZM20.2252 8.32262H20.6812V0.666626H20.2252V8.32262ZM19.2179 8.32262H20.0359V0.666626H19.2179V8.32262ZM21.2892 8.32262H21.7452V0.666626H21.2892V8.32262ZM21.9439 8.32262H22.2972V0.666626H21.9439V8.32262ZM23.6166 8.32262H24.0732V0.666626H23.6166V8.32262ZM22.6086 8.32262H23.4265V0.666626H22.6086V8.32262ZM24.4719 8.32262H25.9445V0.666626H24.4712L24.4719 8.32262ZM26.4085 8.32262H26.8652V0.666626H26.4085V8.32262ZM27.2639 8.32262H28.0819V0.666626H27.2639V8.32262ZM28.8692 8.32262H29.3265V0.666626H28.8692V8.32262ZM29.5246 8.32262H29.8759V0.666626H29.5246V8.32262ZM30.4559 8.32262H31.2725V0.666626H30.4559V8.32262Z" fill="#221E1F"/>
<path fill-rule="evenodd" clip-rule="evenodd" d="M1.17061 14.5413C1.29594 14.5639 1.48194 14.5706 1.71061 14.5706C2.37727 14.5706 2.99194 14.3266 2.99194 13.6006C2.99194 12.9193 2.40727 12.6379 1.70327 12.6379H1.16994L1.17061 14.5413ZM1.17061 12.1493H1.75527C2.43661 12.1493 2.83661 11.7939 2.83661 11.3126C2.83661 10.7273 2.39194 10.4979 1.74061 10.4979C1.44461 10.4979 1.27394 10.5199 1.17061 10.5419V12.1493ZM0.52594 10.1053C0.807273 10.0459 1.25127 10.0019 1.70327 10.0019C2.34794 10.0019 2.76261 10.1126 3.07394 10.3646C3.33261 10.5579 3.48861 10.8533 3.48861 11.2466C3.48861 11.7273 3.16994 12.1493 2.64394 12.3419V12.3566C3.11727 12.4746 3.67327 12.8679 3.67327 13.6086C3.67327 14.0379 3.50327 14.3639 3.25127 14.6079C2.90327 14.9266 2.34061 15.0746 1.52594 15.0746C1.08194 15.0746 0.741273 15.0453 0.52594 15.0153V10.1053ZM6.26727 12.5639C6.26727 13.6306 6.84461 14.5859 7.85927 14.5859C8.88127 14.5859 9.45927 13.6459 9.45927 12.5126C9.45927 11.5199 8.94061 10.4833 7.86661 10.4833C6.79994 10.4833 6.26727 11.4685 6.26727 12.5639ZM10.1406 12.4833C10.1406 14.2006 9.09594 15.1113 7.82261 15.1113C6.50461 15.1113 5.57794 14.0899 5.57794 12.5793C5.57794 10.9939 6.56394 9.95729 7.89661 9.95729C9.25927 9.95729 10.1406 11.0026 10.1406 12.4833ZM12.3126 10.0386H12.9559V14.4893H15.0892V15.0306H12.3126V10.0386ZM19.7266 12.6899H17.7866V14.4893H19.9492V15.0299H17.1419V10.0386H19.8379V10.5786H17.7866V12.1573H19.7266V12.6899ZM23.1866 10.5866H21.6686V10.0386H25.3639V10.5866H23.8386V15.0299H23.1866V10.5866ZM27.4466 12.5639C27.4466 13.6306 28.0239 14.5859 29.0386 14.5859C30.0606 14.5859 30.6379 13.6459 30.6379 12.5126C30.6379 11.5199 30.1199 10.4833 29.0459 10.4833C27.9792 10.4833 27.4466 11.4685 27.4466 12.5639ZM31.3192 12.4833C31.3192 14.2006 30.2752 15.1113 29.0019 15.1113C27.6832 15.1113 26.7572 14.0899 26.7572 12.5793C26.7572 10.9939 27.7426 9.95729 29.0759 9.95729C30.4379 9.95729 31.3192 11.0026 31.3192 12.4833Z" fill="#231F20"/>
</svg>
