<svg width="22" height="22" viewBox="0 0 22 22" fill="none" xmlns="http://www.w3.org/2000/svg">
<path d="M11.3335 21.6667C17.2245 21.6667 22.0001 16.8911 22.0001 11.0001C22.0001 5.109 17.2245 0.333374 11.3335 0.333374C5.44238 0.333374 0.666748 5.109 0.666748 11.0001C0.666748 16.8911 5.44238 21.6667 11.3335 21.6667Z" fill="#231F20"/>
<path fill-rule="evenodd" clip-rule="evenodd" d="M7.91184 12.6276C7.55766 12.9716 7.07766 13.1815 6.54706 13.174C6.19713 13.1683 5.85561 13.0658 5.56039 12.8779L4.85133 14.0088C5.3368 14.3165 5.91116 14.4984 6.5286 14.508C6.95669 14.5152 7.38196 14.4373 7.77966 14.2787C8.17736 14.1202 8.53956 13.8841 8.84518 13.5842L7.91184 12.6276ZM4.67834 11.4639C4.63613 11.0579 4.72502 10.6492 4.93199 10.2974C5.13896 9.94566 5.45313 9.66944 5.82847 9.50922C6.20382 9.34899 6.62061 9.31317 7.01779 9.40701C7.41497 9.50084 7.77166 9.71941 8.0356 10.0307L4.67834 11.4639ZM6.62706 8.01768C6.20087 8.01099 5.77755 8.08837 5.3813 8.24541C4.98504 8.40244 4.62363 8.63605 4.31773 8.93287C4.01183 9.22969 3.76744 9.5839 3.59854 9.97524C3.42963 10.3666 3.33953 10.7874 3.33338 11.2136C3.32244 11.8844 3.51731 12.5128 3.85783 13.0345L9.73543 10.523C9.57008 9.81885 9.17433 9.19009 8.61097 8.73647C8.0476 8.28286 7.34889 8.03036 6.62569 8.01905L6.62706 8.01768ZM11.5796 6.5558V12.8218L12.6668 13.2717L12.1526 14.508L11.0777 14.0615C10.8617 13.9671 10.6777 13.8123 10.5478 13.6157C10.4281 13.431 10.3399 13.1787 10.3399 12.8382V6.5558H11.5796Z" fill="#FEFEFE"/>
<path fill-rule="evenodd" clip-rule="evenodd" d="M15.4989 9.44987C15.7553 9.3642 16.027 9.33394 16.296 9.36111C16.565 9.38827 16.8252 9.47224 17.0593 9.60746C17.2934 9.74268 17.4961 9.92607 17.6541 10.1455C17.812 10.3649 17.9216 10.6153 17.9755 10.8803L19.2849 10.6136C19.1932 10.1634 19.0069 9.73774 18.7385 9.36483C18.47 8.99193 18.1255 8.68025 17.7276 8.45042C17.3297 8.22058 16.8876 8.07783 16.4304 8.03159C15.9733 7.98535 15.5115 8.03668 15.0757 8.18218L15.4989 9.44987Z" fill="#00A4DF"/>
<path fill-rule="evenodd" clip-rule="evenodd" d="M13.9539 13.6936L14.8387 12.6932C14.6358 12.5141 14.4735 12.2938 14.3624 12.0471C14.2514 11.8003 14.1941 11.5327 14.1946 11.2621C14.1946 10.6932 14.4435 10.1825 14.838 9.83303L13.9532 8.832C13.2818 9.42687 12.8585 10.2953 12.8585 11.2621C12.8585 12.2303 13.2825 13.0987 13.9539 13.6936Z" fill="#FFF100"/>
<path fill-rule="evenodd" clip-rule="evenodd" d="M17.9758 11.6457C17.9214 11.9103 17.8116 12.1604 17.6534 12.3794C17.4953 12.5985 17.2926 12.7815 17.0585 12.9164C16.8245 13.0514 16.5645 13.1351 16.2957 13.1622C16.0269 13.1892 15.7554 13.159 15.4992 13.0734L15.0753 14.3411C15.5108 14.4866 15.9723 14.5381 16.4292 14.4922C16.8861 14.4462 17.3281 14.3039 17.726 14.0745C18.1238 13.8452 18.4685 13.5341 18.7373 13.1617C19.0061 12.7894 19.1928 12.3642 19.2852 11.9144L17.9758 11.6457Z" fill="#EE4123"/>
</svg>
