<svg width="38" height="16" viewBox="0 0 38 16" fill="none" xmlns="http://www.w3.org/2000/svg">
<path d="M6.95151 0C5.26821 0.0795873 3.89228 0.757558 3.49499 2.15564C3.28784 2.88477 3.17383 3.68555 3.01184 4.44138C2.18834 8.28451 1.45813 12.2336 0.67041 16H30.3289C32.6218 16 34.1962 15.5155 34.6216 13.6956C34.8192 12.8502 35.0086 11.8928 35.1977 10.964C35.9348 7.34266 36.6726 3.72156 37.4277 0H6.95151Z" fill="#822124"/>
<path d="M10.4638 5.68661C10.6231 5.57686 10.8283 5.07704 10.5939 4.86894C10.5197 4.80306 10.3955 4.78394 10.2222 4.81324C10.0615 4.84037 9.96908 4.89499 9.9063 4.9805C9.80543 5.11795 9.71285 5.53263 9.86914 5.68668C10.0214 5.83662 10.3624 5.75639 10.4638 5.68661ZM8.19665 4.86894C8.0825 5.60962 7.95392 6.33587 7.82498 7.06175C6.99714 7.07048 6.15192 7.10259 5.35345 7.04314C5.50425 6.33298 5.61241 5.58011 5.76228 4.86894H4.87029C4.55101 6.68048 4.26051 8.52096 3.90399 10.2952H4.81459C4.95739 9.38517 5.09102 8.46569 5.27913 7.60068C6.05552 7.58156 6.98603 7.54823 7.73212 7.6193C7.57828 8.51858 7.39241 9.3856 7.24897 10.2952H8.15957C8.45223 8.45696 8.7604 6.63438 9.12594 4.86894H8.19665ZM21.0748 6.42996C20.3663 6.14379 19.8092 6.62738 19.551 7.08037C19.6096 6.87884 19.6337 6.64282 19.6811 6.42996H18.975C18.8023 7.76881 18.5479 9.02576 18.306 10.2952H19.1051C19.2171 9.54174 19.2655 8.52594 19.5139 7.8051C19.7125 7.22908 20.2321 6.73835 20.982 7.00605C20.9924 6.79355 21.0532 6.63134 21.0748 6.42996ZM21.5207 9.38473C21.447 9.19439 21.428 8.88022 21.4464 8.6413C21.4877 8.10439 21.6834 7.45066 21.9854 7.15469C22.402 6.74621 23.2247 6.81383 23.8809 7.04321C23.9011 6.82205 23.9456 6.62478 23.9738 6.41141C22.8977 6.23564 21.8765 6.34503 21.3351 6.91318C20.805 7.46936 20.4576 8.74766 20.7032 9.55198C20.9906 10.4932 22.2797 10.5443 23.3234 10.1838C23.3696 9.99466 23.394 9.78375 23.4349 9.58922C22.8645 9.88542 21.7742 10.0394 21.5207 9.38473ZM30.4964 6.4485C29.7901 6.09537 29.2021 6.68792 28.9726 7.04314C29.038 6.86087 29.0417 6.61677 29.1026 6.42989H28.3965C28.2061 7.75712 27.9766 9.04524 27.709 10.2952H28.5267C28.5318 9.78289 28.6324 9.40392 28.7124 8.90158C28.8833 7.82876 29.1342 6.65234 30.385 7.00598C30.4264 6.82458 30.4436 6.61879 30.4964 6.4485ZM9.64611 6.42996C9.62446 6.43306 9.62591 6.45933 9.62749 6.48566C9.45143 7.80243 9.2131 9.05707 8.95854 10.2952H9.75759C9.94959 8.96955 10.1696 7.67197 10.4452 6.42989L9.64611 6.42996ZM16.6705 6.35564C16.0932 6.40016 15.6051 6.56626 15.2582 6.93173C14.8328 7.37988 14.4883 8.37079 14.5893 9.27324C14.7333 10.5606 16.3362 10.5144 17.6183 10.2024C17.6402 9.97641 17.6949 9.78325 17.7298 9.57053C17.2017 9.76817 16.2847 10.044 15.7413 9.7007C15.3312 9.4413 15.3288 8.78476 15.4626 8.21401C16.3243 8.18659 17.2199 8.19178 18.0828 8.21401C18.1375 7.8095 18.2941 7.36848 18.1571 6.96896C17.9764 6.4415 17.3292 6.30484 16.6705 6.35564ZM17.4324 7.76794H15.5554C15.6149 7.33645 16.0031 6.86217 16.6148 6.83879C17.1904 6.81679 17.6026 7.05014 17.4324 7.76794ZM13.6415 6.42996C12.9652 6.1759 12.141 6.47917 11.7836 6.76765C11.7849 6.78035 11.7751 6.78208 11.7646 6.78302C11.7706 6.77789 11.7773 6.77277 11.7836 6.76765C11.7835 6.76658 11.7834 6.76552 11.7832 6.76447C11.7892 6.64044 11.8329 6.55399 11.8389 6.42996H11.1514C10.8649 8.33624 10.5251 10.1892 10.1665 12.0234H10.9656C11.0812 11.3091 11.1576 10.5554 11.3187 9.88643C11.5012 10.5901 12.6928 10.4556 13.1956 10.1838C14.233 9.62269 15.0332 6.95265 13.6415 6.42996ZM13.0097 9.57053C12.5822 10.0233 11.5312 10.0165 11.4487 9.25456C11.4129 8.92308 11.5363 8.5755 11.5975 8.23254C11.6592 7.8854 11.7037 7.55234 11.7646 7.24763C12.1857 6.73345 13.4231 6.67132 13.5487 7.52636C13.6575 8.2687 13.3637 9.19554 13.0097 9.57053ZM33.4696 4.75746C33.4011 5.35794 33.3096 5.9354 33.1909 6.48566C31.2308 5.8652 30.0288 7.30737 30.0504 9.08738C30.0547 9.43163 30.1139 9.773 30.3291 10.0165C30.7003 10.436 31.7625 10.5365 32.299 10.1837C32.4028 10.1154 32.5089 9.9912 32.5777 9.90505C32.6294 9.84018 32.7115 9.67025 32.7264 9.71918C32.6981 9.90772 32.656 10.0825 32.6521 10.2952H33.3769C33.5166 8.29157 33.9484 6.58026 34.2689 4.75739L33.4696 4.75746ZM31.6857 9.86782C31.1478 9.87935 30.8803 9.54643 30.868 8.99444C30.8465 8.0277 31.2706 6.95366 32.1317 6.85734C32.5326 6.81253 32.8229 6.90575 33.1166 7.00605C32.8469 8.09199 32.9442 9.84083 31.6857 9.86782ZM24.7913 6.42996C24.752 6.65075 24.6916 6.85055 24.6427 7.06175C25.1142 6.94349 26.5825 6.58098 26.724 7.21039C26.771 7.4195 26.6899 7.64167 26.6311 7.8051C25.3034 7.67933 24.2212 7.89991 23.9365 8.84573C23.7459 9.47926 23.9579 10.1027 24.364 10.2767C25.146 10.6118 26.0973 10.2279 26.4267 9.7007C26.3925 9.88317 26.3601 10.0677 26.371 10.2952H27.0585C27.0659 9.63677 27.1617 9.10375 27.2629 8.51122C27.3492 8.00663 27.5117 7.5071 27.486 7.06175C27.4268 6.04183 25.7371 6.40261 24.7913 6.42996ZM26.0921 9.55192C25.6804 9.95505 24.5244 10.0695 24.6427 9.10592C24.7408 8.30557 25.6123 8.1355 26.5566 8.25102C26.4865 8.68886 26.4059 9.24475 26.0921 9.55192Z" fill="white"/>
</svg>
