<svg width="35" height="22" viewBox="0 0 35 22" fill="none" xmlns="http://www.w3.org/2000/svg">
<path d="M21.6595 19.1567H12.4395V2.58698H21.6597L21.6595 19.1567Z" fill="#FF5F00"/>
<path d="M13.0239 10.8714C13.0239 7.51019 14.5977 4.51605 17.0484 2.58649C15.1934 1.12377 12.899 0.329894 10.5366 0.333385C4.71726 0.333385 0 5.05133 0 10.8714C0 16.6914 4.71726 21.4094 10.5366 21.4094C12.899 21.4129 15.1935 20.619 17.0486 19.1563C14.5981 17.227 13.0239 14.2327 13.0239 10.8714Z" fill="#EB001B"/>
<path d="M34.0985 10.8719C34.0985 16.6919 29.3812 21.4099 23.5618 21.4099C21.1991 21.4133 18.904 20.619 17.0486 19.1563C19.4999 17.2267 21.0741 14.2332 21.0741 10.8719C21.0741 7.51053 19.4997 4.51604 17.0484 2.58649C18.9038 1.12381 21.199 0.33046 23.5616 0.333889C29.381 0.333889 34.0985 5.05183 34.0985 10.8719Z" fill="#F79E1B"/>
</svg>
