<svg width="34" height="12" viewBox="0 0 34 12" fill="none" xmlns="http://www.w3.org/2000/svg">
<path d="M14.7617 10.9459H12.0148L13.7316 0.395195H16.4788L14.7617 10.9459ZM9.70396 0.395195L7.08526 7.65196L6.77533 6.08932L5.85133 1.34516C5.85133 1.34516 5.73957 0.395195 4.54831 0.395195H0.219013L0.168213 0.573835C0.168213 0.573835 1.49212 0.849285 3.04152 1.77977L5.428 10.9461H8.29006L12.6603 0.395195H9.70396ZM31.3096 10.9459H33.8318L31.6327 0.394905H29.4246C28.4049 0.394905 28.1566 1.18119 28.1566 1.18119L24.0598 10.9459H26.9233L27.4959 9.37866H30.9878L31.3096 10.9459ZM28.287 7.21366L29.7302 3.26539L30.5422 7.21366H28.287ZM24.2746 2.93237L24.6666 0.666685C24.6666 0.666685 23.457 0.206665 22.196 0.206665C20.8329 0.206665 17.5958 0.802435 17.5958 3.69946C17.5958 6.42517 21.3951 6.45904 21.3951 7.89076C21.3951 9.32246 17.9872 9.06596 16.8626 8.16306L16.4542 10.5321C16.4542 10.5321 17.6807 11.1279 19.5547 11.1279C21.4292 11.1279 24.2571 10.1573 24.2571 7.51566C24.2571 4.77247 20.4237 4.51706 20.4237 3.32438C20.4239 2.13142 23.0991 2.28467 24.2746 2.93237Z" fill="#2566AF"/>
<path d="M6.77533 6.08932L5.85133 1.34516C5.85133 1.34516 5.73957 0.395195 4.54831 0.395195H0.219013L0.168213 0.573835C0.168213 0.573835 2.24904 1.00468 4.24493 2.62041C6.15332 4.16473 6.77533 6.08932 6.77533 6.08932Z" fill="#E6A540"/>
</svg>
